# xmcd CD database file
#
# Track frame offsets:
#	150
#	27164
#	48346
#	69645
#	94705
#	127238
#	157478
#	182782
#	203467
#
# Disc length: 3113 seconds
#
# Revision: 0
# Processed by: cddbd v1.5PL3 Copyright (c) Steve Scherf et al.
# Submitted via: CDex 1.51
#
DISCID=7f0c2709
DTITLE=Roland Hanna - SIR ELF PLUS 1
DYEAR=1977
DGENRE=Jazz
TTITLE0=Yesterdays
TTITLE1=Meeting Of The Minds
TTITLE2=My Shining Hour
TTITLE3=Majorca
TTITLE4=Where's That Rainbow
TTITLE5=What, Does It Matter?
TTITLE6=My Heart Stood Still
TTITLE7=How Long Has This Been Going On
TTITLE8=I'll Close My Eyes
EXTD=YEAR: 1977
EXTT0=
EXTT1=
EXTT2=
EXTT3=
EXTT4=
EXTT5=
EXTT6=
EXTT7=
EXTT8=
PLAYORDER=
